<?xml version="1.0" standalone="no"?>
<!DOCTYPE svg PUBLIC "-//W3C//DTD SVG 20010904//EN"
 "http://www.w3.org/TR/2001/REC-SVG-20010904/DTD/svg10.dtd">
<svg version="1.0" xmlns="http://www.w3.org/2000/svg"
 width="200.000000pt" height="126.000000pt" viewBox="0 0 200.000000 126.000000"
 preserveAspectRatio="xMidYMid meet">
<metadata>
Created by potrace 1.10, written by Peter Selinger 2001-2011
</metadata>
<g transform="translate(0.000000,126.000000) scale(0.100000,-0.100000)"
fill="#000000" stroke="none">
<path d="M860 1174 c-68 -24 -136 -80 -177 -146 -9 -14 -34 -34 -56 -44 -50
-23 -121 -95 -149 -153 -35 -70 -32 -187 5 -258 22 -43 27 -65 27 -126 0 -63
5 -83 31 -136 51 -102 160 -171 270 -171 25 0 55 -10 86 -30 26 -17 63 -35 83
-40 122 -34 272 25 340 135 11 19 44 47 73 63 65 37 112 89 145 160 31 69 28
171 -7 247 -17 37 -24 70 -25 125 -3 167 -118 289 -288 307 -41 4 -76 15 -100
30 -77 51 -175 65 -258 37z m201 -49 c19 -10 44 -27 57 -38 17 -16 37 -21 85
-22 105 -2 190 -54 240 -149 17 -31 22 -60 23 -121 1 -64 6 -91 27 -135 68
-141 1 -321 -135 -362 -30 -9 -44 -22 -68 -64 -32 -57 -89 -103 -154 -124 -77
-25 -200 4 -250 59 -15 17 -26 20 -56 15 -84 -14 -197 45 -250 130 -28 46 -42
123 -32 171 7 32 5 45 -10 67 -69 100 -61 234 19 327 34 40 98 81 126 81 8 0
22 18 32 41 24 53 96 115 154 134 56 18 145 13 192 -10z"/>
<path d="M875 1062 c-46 -23 -89 -65 -104 -104 -5 -15 -11 -93 -12 -173 l-1
-147 38 -24 c22 -13 43 -24 47 -24 5 0 7 71 6 157 -2 90 1 158 7 160 5 2 57
32 116 66 l107 63 -30 18 c-46 27 -126 31 -174 8z m92 -36 c2 -2 -20 -18 -49
-36 -29 -18 -65 -44 -80 -58 -34 -31 -45 -24 -25 15 29 54 89 95 131 87 10 -2
21 -5 23 -8z"/>
<path d="M1145 987 c-17 -7 -81 -41 -143 -75 l-112 -64 0 -49 c0 -27 3 -49 6
-49 3 0 64 34 135 76 72 42 136 73 143 71 7 -3 59 -32 115 -66 57 -34 105 -61
108 -61 3 0 3 22 1 50 -7 70 -46 125 -111 156 -57 26 -95 29 -142 11z m142
-56 c22 -11 53 -49 53 -63 0 -15 -20 -8 -95 34 -57 32 -72 44 -58 49 20 7 68
-2 100 -20z"/>
<path d="M635 858 c-72 -63 -94 -151 -56 -234 22 -49 46 -68 182 -148 l106
-62 45 25 46 26 -132 77 -131 76 -3 136 c-1 76 -7 136 -12 136 -5 0 -25 -14
-45 -32z m15 -151 c0 -62 4 -89 17 -107 l17 -25 -23 16 c-31 20 -61 75 -61
112 0 37 27 100 40 92 5 -3 10 -43 10 -88z"/>
<path d="M1098 808 c-36 -21 -49 -38 -29 -38 12 0 221 -119 244 -139 16 -13
18 -30 15 -143 -2 -72 1 -128 6 -128 5 0 24 12 43 26 91 69 99 220 17 295 -29
27 -236 149 -251 149 -4 0 -25 -10 -45 -22z m298 -200 c24 -46 14 -148 -15
-148 -5 0 -11 38 -13 85 -2 47 -10 91 -16 97 -7 7 -12 16 -12 22 0 14 40 -26
56 -56z"/>
<path d="M943 718 l-53 -30 0 -63 0 -63 58 -34 59 -35 54 32 54 31 3 66 3 66
-54 31 c-30 17 -58 31 -63 30 -5 0 -33 -14 -61 -31z m111 -39 c30 -24 36 -78
10 -103 -42 -42 -113 -25 -124 30 -9 40 1 63 31 80 34 19 52 17 83 -7z"/>
<path d="M1168 503 l-3 -157 -108 -62 c-59 -34 -109 -66 -110 -71 -3 -15 68
-42 114 -43 61 0 126 35 164 89 l30 43 0 154 0 154 -42 26 -42 25 -3 -158z
m37 -190 c-9 -39 -41 -70 -92 -89 -32 -12 -47 -14 -55 -6 -8 8 2 19 37 39 27
15 62 40 79 55 39 34 40 34 31 1z"/>
<path d="M1095 491 c-16 -15 -237 -141 -247 -141 -5 0 -59 29 -120 65 -61 36
-113 63 -116 61 -2 -3 -1 -25 2 -49 10 -65 52 -123 110 -152 86 -43 123 -35
300 70 l96 56 0 50 c0 48 -6 58 -25 40z m-331 -142 c42 -22 74 -44 71 -49 -7
-11 -74 -1 -105 15 -26 14 -68 75 -51 75 5 0 44 -18 85 -41z"/>
</g>
</svg>
