<?xml version="1.0" standalone="no"?>
<!DOCTYPE svg PUBLIC "-//W3C//DTD SVG 20010904//EN"
 "http://www.w3.org/TR/2001/REC-SVG-20010904/DTD/svg10.dtd">
<svg version="1.0" xmlns="http://www.w3.org/2000/svg"
 width="200.000000pt" height="200.000000pt" viewBox="0 0 200.000000 200.000000"
 preserveAspectRatio="xMidYMid meet">
<metadata>
Created by potrace 1.10, written by Peter Selinger 2001-2011
</metadata>
<g transform="translate(0.000000,200.000000) scale(0.100000,-0.100000)"
fill="#000000" stroke="none">
<path d="M60 1379 l0 -590 256 -255 256 -254 191 0 192 -1 124 -124 125 -125
135 0 136 0 0 122 0 123 230 2 230 2 3 675 2 675 -35 93 c-20 51 -48 128 -62
171 l-27 77 -878 0 -878 0 0 -591z m1725 545 c11 -8 20 -18 21 -22 0 -4 4 -14
7 -22 4 -8 27 -70 52 -138 l45 -123 0 -639 c0 -567 -2 -640 -16 -654 -13 -13
-46 -16 -210 -16 -194 0 -195 0 -219 -25 -23 -22 -25 -32 -25 -109 0 -46 -3
-91 -6 -100 -5 -13 -24 -16 -108 -16 l-103 0 -114 111 c-63 61 -123 117 -134
125 -14 9 -69 13 -195 15 -121 1 -183 5 -200 14 -14 8 -130 119 -257 247
l-233 234 0 554 c0 389 4 557 11 567 9 11 162 13 838 13 721 -1 829 -3 846
-16z"/>
<path d="M235 1808 c-35 -28 -35 -89 1 -125 l25 -25 -23 -25 c-19 -21 -23 -35
-23 -89 0 -35 5 -68 12 -75 8 -8 8 -18 0 -40 -9 -22 -9 -34 1 -50 10 -16 10
-24 -3 -42 -12 -17 -15 -53 -15 -177 0 -151 1 -156 27 -195 14 -22 22 -37 18
-33 -15 14 -35 -14 -35 -48 0 -30 16 -49 143 -175 78 -78 152 -145 165 -150
13 -5 121 -9 240 -9 l218 0 100 -97 c125 -123 145 -137 170 -118 16 11 20 31
24 112 l5 98 173 5 c157 5 175 7 188 24 22 30 20 253 -2 285 -16 22 -16 25 0
51 14 24 16 62 16 257 -1 178 -4 232 -14 246 -12 16 -12 22 0 45 21 40 20 325
-1 345 -30 31 -285 36 -321 7 -13 -11 -20 -11 -43 3 -22 13 -47 16 -110 13
-45 -2 -87 -9 -94 -14 -25 -20 -91 -20 -125 0 -30 19 -47 20 -202 16 -143 -3
-173 -6 -187 -20 -16 -16 -16 -19 2 -38 23 -25 8 -26 -25 0 -30 24 -59 25
-107 5 -19 -8 -38 -15 -40 -15 -3 0 -3 7 1 15 3 8 2 15 -2 15 -11 0 -72 -39
-114 -72 l-38 -30 0 56 0 56 83 0 c93 1 88 17 -7 24 -45 3 -61 0 -81 -16z
m710 -38 c-8 -16 -15 -36 -15 -45 0 -10 -9 -15 -28 -15 -31 0 -123 -43 -142
-65 -10 -12 -17 -8 -41 25 -30 41 -97 95 -136 111 -13 5 -23 11 -23 14 0 3 90
5 200 5 l201 0 -16 -30z m312 -27 c-18 -31 -57 -82 -88 -114 -69 -71 -114 -87
-204 -70 -66 12 -88 3 -69 -27 14 -21 45 -30 109 -31 l50 -1 1 -76 c1 -55 5
-79 17 -91 12 -12 19 -14 30 -5 10 9 12 33 10 94 l-4 83 53 46 54 46 52 -10
c40 -9 52 -15 52 -29 0 -43 49 -105 89 -113 32 -6 27 30 -9 72 -43 49 -39 59
26 67 42 5 59 3 70 -9 24 -24 54 -37 70 -31 23 9 17 45 -9 55 -30 12 -44 30
-61 77 -9 27 -19 39 -32 39 -15 0 -19 -7 -18 -37 1 -36 0 -37 -42 -44 -24 -3
-69 -3 -99 1 l-56 7 25 29 c14 16 36 52 48 80 l23 50 143 -2 142 -2 0 -168 c0
-154 -6 -190 -25 -159 -3 6 -17 10 -30 10 -17 0 -22 -5 -20 -17 2 -10 4 -21 4
-24 1 -3 17 -14 36 -25 l35 -19 0 -236 0 -236 -122 -6 c-89 -4 -148 -13 -213
-31 -298 -86 -315 -89 -445 -90 -116 -1 -128 1 -170 24 -58 33 -112 110 -77
110 24 0 190 86 323 168 157 96 218 128 306 158 57 19 69 20 79 8 15 -18 48
-18 55 1 3 8 -4 26 -15 41 -12 15 -21 41 -21 60 0 18 -6 34 -12 37 -26 8 -38
-6 -38 -43 0 -36 -2 -38 -37 -45 -44 -8 -173 -66 -263 -119 -71 -42 -95 -42
-137 0 -21 21 -24 32 -20 61 8 46 27 75 63 93 35 18 44 29 37 47 -8 19 -47 16
-76 -7 l-25 -20 -26 31 c-32 38 -40 67 -33 125 8 76 58 112 190 139 21 4 27
11 27 31 0 14 7 38 15 54 13 26 19 28 51 23 28 -5 39 -2 46 10 7 14 26 17 103
17 l94 0 -32 -57z m-757 -45 c-26 -26 -53 -62 -60 -78 -9 -21 -29 -37 -74 -58
-33 -16 -76 -43 -93 -59 l-33 -31 0 61 c0 59 1 61 48 105 26 24 80 64 120 87
66 39 76 42 107 33 l33 -11 -48 -49z m146 -30 c66 -69 73 -84 62 -125 -5 -19
-7 -45 -4 -58 5 -21 2 -23 -58 -28 -65 -6 -168 -46 -225 -86 -27 -19 -31 -20
-60 -5 -18 9 -52 16 -76 16 -41 1 -45 4 -45 25 0 15 4 22 11 17 6 -3 27 9 47
29 21 19 57 45 81 57 44 22 46 22 112 6 102 -24 115 -22 124 22 3 15 -4 19
-38 20 -55 3 -97 12 -97 21 0 21 96 131 115 131 6 0 29 -19 51 -42z m84 -267
c0 -5 14 -23 30 -39 26 -27 29 -34 20 -57 -5 -14 -10 -37 -10 -50 0 -21 -4
-23 -49 -23 -78 -1 -165 -51 -145 -83 8 -14 27 -11 75 11 54 24 137 27 146 5
3 -9 19 -23 35 -31 l30 -15 -44 -25 c-253 -142 -388 -174 -523 -123 l-55 20 0
171 0 171 50 -5 c63 -6 82 -21 69 -54 -5 -14 -9 -49 -9 -77 0 -49 -2 -53 -30
-64 -23 -9 -29 -17 -28 -36 2 -21 6 -24 28 -20 37 8 111 7 143 -2 23 -6 27 -4
27 13 0 23 -35 52 -61 52 -36 0 -32 128 5 169 25 27 107 69 167 85 62 17 129
20 129 7z m-160 -480 c0 -27 -15 -34 -31 -15 -10 13 -10 17 2 25 22 13 29 11
29 -10z m-129 -39 l87 4 18 -34 c43 -80 130 -122 269 -129 111 -6 215 12 393
66 152 46 234 61 331 61 l91 0 0 -135 0 -136 -190 3 -190 3 0 -125 0 -125
-123 123 -122 122 -235 0 -235 0 -147 147 c-97 97 -148 155 -148 169 l0 21 58
-20 c44 -15 76 -18 143 -15z"/>
</g>
</svg>
